<?xml version="1.0" encoding="utf-8"?>
<!-- Generator: Adobe Illustrator 16.0.0, SVG Export Plug-In . SVG Version: 6.00 Build 0)  -->
<!DOCTYPE svg PUBLIC "-//W3C//DTD SVG 1.1//EN" "http://www.w3.org/Graphics/SVG/1.1/DTD/svg11.dtd">
<svg version="1.1" xmlns="http://www.w3.org/2000/svg" xmlns:xlink="http://www.w3.org/1999/xlink" x="0px" y="0px" width="822px"
	 height="567px" viewBox="0 0 822 567" enable-background="new 0 0 822 567" xml:space="preserve">
<g id="FON">
	<rect fill="#FFFFFF" width="822" height="567"/>
</g>
<g id="COLOR">
	<g id="XMLID_4_">
		<polygon fill="#898888" stroke="#000000" stroke-width="0.25" stroke-miterlimit="10" points="663.1,461.3 729.7,538 513,538.6 
			528.7,534 566,519 577.8,497.4 609,481 643,460 		"/>
		<path fill="#999999" stroke="#000000" stroke-width="0.25" stroke-miterlimit="10" d="M643,460l-34,21l-31.2,16.4L566,519
			l-37.3,15l-15.7,4.6l-15.2,0l23.9-41.3c0,0,17.9-13.4,21.6-14.7c3.7-1.3,16.4-44,16.4-48.7s-33-46.4-33-46.4l33.6-8.3
			c0,0,30,20.7,34,25.3c4,4.7,34,29.3,38,32.7C636.3,440.7,643,460,643,460z"/>
		<polygon fill="#B5B5B5" stroke="#000000" stroke-width="0.25" stroke-miterlimit="10" points="612.6,276 624.9,313.1 618.3,305.3 
			603,286.2 587,269.3 559.7,250 543.3,242.7 519.7,216 522.3,187.3 543.3,163.3 577.8,194.9 578.2,196.8 		"/>
		<path fill="#A0A0A0" stroke="#000000" stroke-width="0.25" stroke-miterlimit="10" d="M642.4,366.2l20.7,95.2L643,460
			c0,0-6.7-19.3-10.7-22.7c-4-3.3-34-28-38-32.7c-4-4.7-34-25.3-34-25.3l-33.6,8.3L525,388l-44-49.3l-25-47.5l-1-1.8
			c0,0,23.3-50.7,20.7-54.7l44-18.7l23.6,26.7l16.4,7.3l27.3,19.3l16,16.8l15.3,19.2l6.5,7.8L642.4,366.2z"/>
		<path fill="#A0A0A0" stroke="#000000" stroke-width="0.25" stroke-miterlimit="10" d="M559.7,434c0,4.7-12.7,47.3-16.4,48.7
			c-3.7,1.3-21.6,14.7-21.6,14.7l-9.7-28.7L497.8,457l-22.1-32l-18.7-8l-8-27c2-0.7,8-38,8-38v-32.7l-1-28.2l25,47.5l44,49.3
			l1.7-0.4C526.7,387.6,559.7,429.3,559.7,434z"/>
		<path fill="#9B9B9B" stroke="#000000" stroke-width="0.25" stroke-miterlimit="10" d="M512,468.7l9.7,28.7l-23.9,41.3L410.5,515
			l-94.1-17.5L383,474l16-46l24.5-30.7c0,0,23.5-6.7,25.5-7.3l8,27l18.7,8l22.1,32L512,468.7z"/>
		<path fill="#AFAFAF" stroke="#000000" stroke-width="0.25" stroke-miterlimit="10" d="M423.5,397.3L399,428l-16,46l-66.6,23.4
			c0,0-124,15.8-133.2,16.5c-9.2,0.7-73.5-16.5-73.5-16.5l-32.1-26.2l3.5-2.5h0h39.2l68.7-25.3c0,0,43.7-23,46.7-34.8l64.6-5.8
			l58-11.3l35.3,8.6L423.5,397.3z"/>
		<path fill="#B5B5B5" stroke="#000000" stroke-width="0.25" stroke-miterlimit="10" d="M235.7,408.5c0.2-0.9,0.2-1.8-0.1-2.5
			c-4-10.7,52-53.3,52-53.3c12.7-10,64-61.3,64-61.3c6-9.3,38-68.7,38-68.7c-0.7-4.7,32-52,32-52c0.4-0.4,1-1.3,1.8-2.8
			c0,0,49.5,62.8,52.2,66.8c2.7,4-20.7,54.7-20.7,54.7l1,1.8l1,28.2V352c0,0-6,37.3-8,38s-25.5,7.3-25.5,7.3l-29.8,2.6l-35.3-8.6
			l-58,11.3L235.7,408.5z"/>
		<path fill="#C4C4C4" stroke="#000000" stroke-width="0.25" stroke-miterlimit="10" d="M559.8,106.5l18,88.4l-34.5-31.6l-21,24
			l-2.7,28.7l-44,18.7c-2.7-4-52.2-66.8-52.2-66.8C431.2,152.9,455,86,455,86c10-16.7,47.4-36.2,47.4-36.2L559.8,106.5z"/>
		<path fill="#D0D0D0" stroke="#000000" stroke-width="0.25" stroke-miterlimit="10" d="M481.7,13.3l20.7,36.5
			c0,0-37.4,19.5-47.4,36.2c0,0-23.8,66.9-31.5,81.9c-0.8,1.5-1.4,2.5-1.8,2.8c0,0-32.7,47.3-32,52c0,0-32,59.3-38,68.7l0.7-32.1
			l3.3-15.9l7.3-20.7l5-18v-24l-5-12.8l10-18.5V134l-6.1-12V94.7l80.4-61.2L481.7,13.3z"/>
		<polygon fill="#CECECE" stroke="#000000" stroke-width="0.25" stroke-miterlimit="10" points="373,134 373,149.3 363,167.9 
			368,180.7 368,204.7 363,222.7 355.7,243.3 352.3,259.2 323,259.2 309,267.3 265.9,313.1 300.4,230.2 339.4,170.2 366.9,94.7 
			366.9,122 		"/>
		<path fill="#CCCCCC" stroke="#000000" stroke-width="0.25" stroke-miterlimit="10" d="M235.7,406c0.3,0.8,0.3,1.6,0.1,2.5
			c-3,11.8-46.7,34.8-46.7,34.8l-68.7,25.3H81.2l99.8-71.9l84.9-83.7l43.1-45.8l14-8.1h29.3l-0.7,32.1c0,0-51.3,51.3-64,61.3
			C287.7,352.7,231.7,395.3,235.7,406z"/>
	</g>
</g>
<g id="www.abc-color.com">
	<polygon points="137.8,533.6 140.4,533.6 140.4,542.2 138.7,542.2 138.7,535.4 137,542.2 135.4,542.2 133.7,535.4 133.7,542.2 
		132.1,542.2 132.1,533.6 134.7,533.6 136.2,539.4 	"/>
	<path d="M129.6,534.6c0.8,0.8,1.1,1.9,1.1,3.3c0,1.4-0.4,2.5-1.1,3.3c-0.8,0.8-1.5,1.2-2.8,1.2v-1.5c0.7,0,1-0.2,1.4-0.7
		c0.4-0.5,0.7-1.3,0.7-2.2c0-1-0.2-1.7-0.6-2.2c-0.4-0.5-1-0.7-1.7-0.7c-0.7,0-1.3,0.2-1.7,0.7c-0.4,0.5-0.6,1.2-0.6,2.2
		c0,1,0.2,1.7,0.7,2.2c0.4,0.5,0.8,0.8,1.5,0.8v1.5c-1.3,0-2.1-0.4-2.8-1.2c-0.8-0.8-1.1-1.9-1.1-3.2c0-0.9,0.1-1.6,0.4-2.2
		c0.2-0.4,0.5-0.8,0.8-1.2c0.3-0.3,0.7-0.6,1.1-0.8c0.5-0.2,1.2-0.3,1.9-0.3C127.8,533.4,128.8,533.8,129.6,534.6z"/>
	<path d="M120,541.6c-0.6,0.5-1.4,0.7-2.3,0.7c-1.1,0-2.1-0.4-2.8-1.2c-0.7-0.8-1.1-1.9-1.1-3.2c0-1.4,0.4-2.5,1.1-3.3
		c0.7-0.8,1.7-1.2,2.9-1.2c1,0,1.9,0.3,2.6,0.9c0.4,0.4,0.7,0.9,0.9,1.6l-1.7,0.4c-0.1-0.5-0.3-0.8-0.6-1.1
		c-0.3-0.3-0.7-0.4-1.2-0.4c-0.6,0-1.2,0.2-1.6,0.7c-0.4,0.5-0.6,1.2-0.6,2.2c0,1.1,0.2,1.9,0.6,2.3s0.9,0.7,1.5,0.7
		c0.5,0,0.9-0.1,1.2-0.4c0.3-0.3,0.6-0.8,0.7-1.4l1.7,0.5C121,540.5,120.6,541.2,120,541.6z"/>
	<rect x="110.7" y="540.5" width="1.6" height="1.7"/>
	<path d="M105.7,533.6c0.9,0,1.6,0.1,2,0.2c0.4,0.2,0.8,0.4,1,0.8c0.3,0.4,0.4,0.8,0.4,1.4c0,0.6-0.2,1.2-0.6,1.6
		c-0.4,0.4-0.9,0.7-1.7,0.8c0.4,0.2,0.7,0.5,0.9,0.7c0.3,0.3,0.6,0.7,1,1.4l1,1.7h-2.1l-1.3-1.9c-0.4-0.7-0.8-1.1-0.9-1.3
		c-0.2-0.2-0.3-0.3-0.5-0.4c-0.2-0.1-0.6-0.1-1-0.1v-1.4h1c0.8,0,1.4,0,1.6-0.1c0.2-0.1,0.4-0.2,0.5-0.4c0.1-0.2,0.2-0.4,0.2-0.6
		c0-0.3-0.1-0.5-0.2-0.7c-0.1-0.2-0.4-0.3-0.6-0.3c-0.1,0-0.6,0-1.3,0h-1.4v7.1h-1.7v-8.6H105.7z"/>
	<path d="M99.6,534.6c0.8,0.8,1.1,1.9,1.1,3.3c0,1.4-0.4,2.5-1.1,3.3c-0.8,0.8-1.5,1.2-2.8,1.2v-1.5c0.7,0,1-0.2,1.4-0.7
		c0.4-0.5,0.7-1.3,0.7-2.2c0-1-0.2-1.7-0.6-2.2c-0.4-0.5-1-0.7-1.7-0.7c-0.7,0-1.3,0.2-1.7,0.7c-0.4,0.5-0.6,1.2-0.6,2.2
		c0,1,0.2,1.7,0.7,2.2c0.4,0.5,0.8,0.8,1.5,0.8v1.5c-1.3,0-2.1-0.4-2.8-1.2c-0.8-0.8-1.1-1.9-1.1-3.2c0-0.9,0.1-1.6,0.4-2.2
		c0.2-0.4,0.5-0.8,0.8-1.2c0.3-0.3,0.7-0.6,1.1-0.8c0.5-0.2,1.2-0.3,1.9-0.3C97.8,533.4,98.8,533.8,99.6,534.6z"/>
	<polygon points="91.5,540.7 91.5,542.2 85.5,542.2 85.5,533.6 87.2,533.6 87.2,540.7 	"/>
	<path d="M79.8,542.3c-1.3,0-2.1-0.4-2.9-1.2c-0.8-0.8-1.1-1.9-1.1-3.2c0-0.9,0.1-1.6,0.4-2.2c0.2-0.4,0.5-0.8,0.8-1.2
		c0.3-0.3,0.7-0.6,1.1-0.8c0.5-0.2,1.2-0.3,1.9-0.3c1.3,0,2.3,0.4,3,1.2c0.8,0.8,1.1,1.9,1.1,3.3c0,1.4-0.4,2.5-1.1,3.3
		c-0.8,0.8-1.4,1.2-2.7,1.2v-1.5c0.7,0,0.9-0.2,1.4-0.7c0.4-0.5,0.7-1.3,0.7-2.2c0-1-0.2-1.7-0.7-2.2c-0.4-0.5-1-0.7-1.7-0.7
		c-0.7,0-1.3,0.2-1.7,0.7c-0.4,0.5-0.6,1.2-0.6,2.2c0,1,0.2,1.7,0.7,2.2c0.4,0.5,0.9,0.8,1.6,0.8V542.3z"/>
	<path d="M73.3,541.6c-0.6,0.5-1.4,0.7-2.3,0.7c-1.1,0-2.1-0.4-2.8-1.2c-0.7-0.8-1.1-1.9-1.1-3.2c0-1.4,0.4-2.5,1.1-3.3
		c0.7-0.8,1.7-1.2,2.9-1.2c1,0,1.9,0.3,2.6,0.9c0.4,0.4,0.7,0.9,0.9,1.6l-1.7,0.4c-0.1-0.5-0.3-0.8-0.6-1.1
		c-0.3-0.3-0.7-0.4-1.2-0.4c-0.6,0-1.2,0.2-1.6,0.7c-0.4,0.5-0.6,1.2-0.6,2.2c0,1.1,0.2,1.9,0.6,2.3c0.4,0.5,0.9,0.7,1.5,0.7
		c0.5,0,0.9-0.1,1.2-0.4c0.3-0.3,0.6-0.8,0.7-1.4l1.7,0.5C74.3,540.5,73.9,541.2,73.3,541.6z"/>
	<rect x="63" y="537.1" width="3.2" height="1.7"/>
	<path d="M60.7,541.6c-0.6,0.5-1.4,0.7-2.3,0.7c-1.1,0-2.1-0.4-2.8-1.2c-0.7-0.8-1.1-1.9-1.1-3.2c0-1.4,0.4-2.5,1.1-3.3
		c0.7-0.8,1.7-1.2,2.9-1.2c1.1,0,1.9,0.3,2.6,0.9c0.4,0.4,0.7,0.9,0.9,1.6l-1.7,0.4c-0.1-0.5-0.3-0.8-0.6-1.1
		c-0.3-0.3-0.7-0.4-1.2-0.4c-0.6,0-1.1,0.2-1.6,0.7c-0.4,0.5-0.6,1.2-0.6,2.2c0,1.1,0.2,1.9,0.6,2.3s0.9,0.7,1.5,0.7
		c0.5,0,0.9-0.1,1.2-0.4c0.3-0.3,0.6-0.8,0.7-1.4l1.7,0.5C61.7,540.5,61.3,541.2,60.7,541.6z"/>
	<path d="M50.6,540.7c0.3,0,0.5-0.2,0.6-0.3c0.2-0.2,0.3-0.4,0.3-0.7c0-0.3-0.1-0.5-0.2-0.7c-0.1-0.2-0.3-0.3-0.5-0.4
		c-0.2-0.1-0.8-0.1-1.5-0.1h-1V537H49c0.7,0,1.1,0,1.3,0c0.3,0,0.5-0.1,0.7-0.3s0.3-0.4,0.3-0.7c0-0.3-0.1-0.5-0.2-0.7
		c-0.2-0.2-0.4-0.3-0.7-0.3c-0.2,0-0.7,0-1.5,0h-1v7.2h-1.7v-8.6h3.4c0.7,0,1.2,0,1.5,0.1c0.3,0,0.6,0.2,0.9,0.3
		c0.3,0.2,0.5,0.4,0.6,0.7c0.2,0.3,0.3,0.6,0.3,1c0,0.4-0.1,0.8-0.3,1.1c-0.2,0.3-0.5,0.6-0.9,0.8c0.5,0.1,0.9,0.4,1.2,0.8
		c0.3,0.4,0.4,0.8,0.4,1.3c0,0.4-0.1,0.8-0.3,1.1c-0.2,0.4-0.4,0.7-0.8,0.9c-0.3,0.2-0.7,0.4-1.2,0.4c-0.3,0-1,0-2.1,0.1h-0.8v-1.5
		h1.2C50.1,540.7,50.5,540.7,50.6,540.7z"/>
	<polygon points="41.8,538.8 42.3,540.2 39.3,540.2 39.8,538.8 	"/>
	<polygon points="41.7,533.6 45.2,542.2 43.3,542.2 42.5,540.2 42,538.8 40.8,535.6 39.6,538.8 39.1,540.2 38.4,542.2 36.6,542.2 
		39.9,533.6 	"/>
</g>
</svg>
